{
	"asset":{
		"generator":"Khronos glTF Blender I/O v5.0.21",
		"version":"2.0"
	},
	"scene":0,
	"scenes":[
		{
			"name":"Scene",
			"nodes":[
				0
			]
		}
	],
	"nodes":[
		{
			"mesh":0,
			"name":"Cube"
		}
	],
	"materials":[
		{
			"doubleSided":true,
			"name":"base",
			"pbrMetallicRoughness":{
				"baseColorTexture":{
					"index":0
				},
				"metallicFactor":0,
				"roughnessFactor":0.800000011920929
			}
		}
	],
	"meshes":[
		{
			"name":"Cube",
			"primitives":[
				{
					"attributes":{
						"POSITION":0,
						"NORMAL":1,
						"TEXCOORD_0":2
					},
					"indices":3,
					"material":0
				}
			]
		}
	],
	"textures":[
		{
			"sampler":0,
			"source":0
		}
	],
	"images":[
		{
			"mimeType":"image/png",
			"name":"SharkCard_baseColor",
			"uri":"textures/SharkCard_baseColor.png"
		}
	],
	"accessors":[
		{
			"bufferView":0,
			"componentType":5126,
			"count":549,
			"max":[
				1.0000001192092896,
				0.03418120741844177,
				1.6052298545837402
			],
			"min":[
				-1.0000001192092896,
				-0.03418120741844177,
				-1.6052296161651611
			],
			"type":"VEC3"
		},
		{
			"bufferView":1,
			"componentType":5126,
			"count":549,
			"type":"VEC3"
		},
		{
			"bufferView":2,
			"componentType":5126,
			"count":549,
			"type":"VEC2"
		},
		{
			"bufferView":3,
			"componentType":5123,
			"count":2880,
			"type":"SCALAR"
		}
	],
	"bufferViews":[
		{
			"buffer":0,
			"byteLength":6588,
			"byteOffset":0,
			"target":34962
		},
		{
			"buffer":0,
			"byteLength":6588,
			"byteOffset":6588,
			"target":34962
		},
		{
			"buffer":0,
			"byteLength":4392,
			"byteOffset":13176,
			"target":34962
		},
		{
			"buffer":0,
			"byteLength":5760,
			"byteOffset":17568,
			"target":34963
		}
	],
	"samplers":[
		{
			"magFilter":9729,
			"minFilter":9987
		}
	],
	"buffers":[
		{
			"byteLength":23328,
			"uri":"SharkSimplePlayingCard.bin"
		}
	]
}
